<svg width="1200" height="800" viewBox="0 0 1200 800" fill="none" xmlns="http://www.w3.org/2000/svg">
  <defs>
    <linearGradient id="g" x1="0" y1="0" x2="1" y2="1">
      <stop offset="0" stop-color="#0f172a"/>
      <stop offset="0.55" stop-color="#1e293b"/>
      <stop offset="1" stop-color="#0b1220"/>
    </linearGradient>

    <radialGradient id="r" cx="0" cy="0" r="1" gradientUnits="userSpaceOnUse"
      gradientTransform="translate(820 260) rotate(135) scale(620 520)">
      <stop stop-color="#64748b" stop-opacity="0.35"/>
      <stop offset="1" stop-color="#64748b" stop-opacity="0"/>
    </radialGradient>

    <pattern id="grid" width="48" height="48" patternUnits="userSpaceOnUse">
      <path d="M48 0H0V48" fill="none" stroke="#94a3b8" stroke-opacity="0.10"/>
    </pattern>
  </defs>

  <rect width="1200" height="800" fill="url(#g)"/>
  <rect width="1200" height="800" fill="url(#r)"/>
  <rect width="1200" height="800" fill="url(#grid)"/>

  <g opacity="0.9">
    <rect x="330" y="220" width="540" height="360" rx="36" fill="#0b1220" fill-opacity="0.55" stroke="#94a3b8" stroke-opacity="0.18"/>
    <path d="M480 360c0-44.183 35.817-80 80-80h80c44.183 0 80 35.817 80 80v80c0 44.183-35.817 80-80 80h-80c-44.183 0-80-35.817-80-80v-80z"
      fill="#0f172a" stroke="#94a3b8" stroke-opacity="0.25"/>
    <path d="M560 360h80m-40-40v160" stroke="#e2e8f0" stroke-opacity="0.55" stroke-width="14" stroke-linecap="round"/>
  </g>

  <text x="600" y="650" text-anchor="middle" font-family="ui-sans-serif, system-ui, -apple-system" font-size="26" fill="#e2e8f0" fill-opacity="0.6">
    No image provided
  </text>
</svg>
